<mxfile host="app.diagrams.net" modified="2024-01-13T14:48:45.425Z" agent="Mozilla/5.0 (Macintosh; Intel Mac OS X 10_15_7) AppleWebKit/537.36 (KHTML, like Gecko) Chrome/120.0.0.0 Safari/537.36" etag="CvwSgjdnxXXnHfH-eMB2" version="22.1.18" type="github">
  <diagram name="第 1 页" id="ro57RMFlIY5lIVj5oleq">
    <mxGraphModel dx="1562" dy="858" grid="1" gridSize="10" guides="1" tooltips="1" connect="1" arrows="1" fold="1" page="1" pageScale="1" pageWidth="827" pageHeight="1169" math="0" shadow="0">
      <root>
        <mxCell id="0" />
        <mxCell id="1" parent="0" />
        <mxCell id="VK_fdcJX0h6HLVaaX9Vf-15" style="rounded=0;orthogonalLoop=1;jettySize=auto;html=1;exitX=1;exitY=0.5;exitDx=0;exitDy=0;entryX=0;entryY=0.5;entryDx=0;entryDy=0;" edge="1" parent="1" source="VK_fdcJX0h6HLVaaX9Vf-5" target="VK_fdcJX0h6HLVaaX9Vf-14">
          <mxGeometry relative="1" as="geometry" />
        </mxCell>
        <mxCell id="VK_fdcJX0h6HLVaaX9Vf-5" value="" style="rounded=0;whiteSpace=wrap;html=1;" vertex="1" parent="1">
          <mxGeometry x="150" y="290" width="60" height="40" as="geometry" />
        </mxCell>
        <mxCell id="VK_fdcJX0h6HLVaaX9Vf-16" style="rounded=0;orthogonalLoop=1;jettySize=auto;html=1;exitX=1;exitY=0.5;exitDx=0;exitDy=0;entryX=0;entryY=0.5;entryDx=0;entryDy=0;" edge="1" parent="1" source="VK_fdcJX0h6HLVaaX9Vf-6" target="VK_fdcJX0h6HLVaaX9Vf-14">
          <mxGeometry relative="1" as="geometry" />
        </mxCell>
        <mxCell id="VK_fdcJX0h6HLVaaX9Vf-6" value="" style="rounded=0;whiteSpace=wrap;html=1;" vertex="1" parent="1">
          <mxGeometry x="150" y="350" width="60" height="40" as="geometry" />
        </mxCell>
        <mxCell id="VK_fdcJX0h6HLVaaX9Vf-17" style="rounded=0;orthogonalLoop=1;jettySize=auto;html=1;exitX=1;exitY=0.5;exitDx=0;exitDy=0;entryX=0;entryY=0.5;entryDx=0;entryDy=0;" edge="1" parent="1" source="VK_fdcJX0h6HLVaaX9Vf-7" target="VK_fdcJX0h6HLVaaX9Vf-14">
          <mxGeometry relative="1" as="geometry" />
        </mxCell>
        <mxCell id="VK_fdcJX0h6HLVaaX9Vf-7" value="" style="rounded=0;whiteSpace=wrap;html=1;" vertex="1" parent="1">
          <mxGeometry x="150" y="450" width="60" height="40" as="geometry" />
        </mxCell>
        <mxCell id="VK_fdcJX0h6HLVaaX9Vf-18" style="rounded=0;orthogonalLoop=1;jettySize=auto;html=1;exitX=1;exitY=0.5;exitDx=0;exitDy=0;entryX=0;entryY=0.5;entryDx=0;entryDy=0;" edge="1" parent="1" source="VK_fdcJX0h6HLVaaX9Vf-8" target="VK_fdcJX0h6HLVaaX9Vf-14">
          <mxGeometry relative="1" as="geometry" />
        </mxCell>
        <mxCell id="VK_fdcJX0h6HLVaaX9Vf-8" value="" style="rounded=0;whiteSpace=wrap;html=1;" vertex="1" parent="1">
          <mxGeometry x="150" y="510" width="60" height="40" as="geometry" />
        </mxCell>
        <mxCell id="VK_fdcJX0h6HLVaaX9Vf-9" value="..." style="text;html=1;strokeColor=none;fillColor=none;align=center;verticalAlign=middle;whiteSpace=wrap;rounded=0;rotation=90;fontSize=14;fontStyle=1" vertex="1" parent="1">
          <mxGeometry x="154" y="410" width="60" height="30" as="geometry" />
        </mxCell>
        <mxCell id="VK_fdcJX0h6HLVaaX9Vf-10" value="e1" style="text;html=1;strokeColor=none;fillColor=none;align=center;verticalAlign=middle;whiteSpace=wrap;rounded=0;" vertex="1" parent="1">
          <mxGeometry x="100" y="300" width="60" height="30" as="geometry" />
        </mxCell>
        <mxCell id="VK_fdcJX0h6HLVaaX9Vf-11" value="e2" style="text;html=1;strokeColor=none;fillColor=none;align=center;verticalAlign=middle;whiteSpace=wrap;rounded=0;" vertex="1" parent="1">
          <mxGeometry x="100" y="355" width="60" height="30" as="geometry" />
        </mxCell>
        <mxCell id="VK_fdcJX0h6HLVaaX9Vf-12" value="en-1" style="text;html=1;strokeColor=none;fillColor=none;align=center;verticalAlign=middle;whiteSpace=wrap;rounded=0;" vertex="1" parent="1">
          <mxGeometry x="100" y="455" width="60" height="30" as="geometry" />
        </mxCell>
        <mxCell id="VK_fdcJX0h6HLVaaX9Vf-13" value="en" style="text;html=1;strokeColor=none;fillColor=none;align=center;verticalAlign=middle;whiteSpace=wrap;rounded=0;" vertex="1" parent="1">
          <mxGeometry x="100" y="510" width="60" height="30" as="geometry" />
        </mxCell>
        <mxCell id="VK_fdcJX0h6HLVaaX9Vf-22" style="edgeStyle=orthogonalEdgeStyle;rounded=0;orthogonalLoop=1;jettySize=auto;html=1;exitX=1;exitY=0.5;exitDx=0;exitDy=0;entryX=0;entryY=0.5;entryDx=0;entryDy=0;" edge="1" parent="1" source="VK_fdcJX0h6HLVaaX9Vf-14" target="VK_fdcJX0h6HLVaaX9Vf-20">
          <mxGeometry relative="1" as="geometry" />
        </mxCell>
        <mxCell id="VK_fdcJX0h6HLVaaX9Vf-14" value="" style="rounded=0;whiteSpace=wrap;html=1;" vertex="1" parent="1">
          <mxGeometry x="330" y="385" width="40" height="80" as="geometry" />
        </mxCell>
        <mxCell id="VK_fdcJX0h6HLVaaX9Vf-19" value="Sum" style="text;html=1;strokeColor=none;fillColor=none;align=center;verticalAlign=middle;whiteSpace=wrap;rounded=0;" vertex="1" parent="1">
          <mxGeometry x="320" y="360" width="60" height="30" as="geometry" />
        </mxCell>
        <mxCell id="VK_fdcJX0h6HLVaaX9Vf-20" value="" style="rounded=0;whiteSpace=wrap;html=1;" vertex="1" parent="1">
          <mxGeometry x="430" y="405" width="70" height="40" as="geometry" />
        </mxCell>
        <mxCell id="VK_fdcJX0h6HLVaaX9Vf-21" value="Label" style="text;html=1;strokeColor=none;fillColor=none;align=center;verticalAlign=middle;whiteSpace=wrap;rounded=0;" vertex="1" parent="1">
          <mxGeometry x="500" y="410" width="60" height="30" as="geometry" />
        </mxCell>
        <mxCell id="VK_fdcJX0h6HLVaaX9Vf-23" value="Input" style="text;html=1;strokeColor=none;fillColor=none;align=center;verticalAlign=middle;whiteSpace=wrap;rounded=0;" vertex="1" parent="1">
          <mxGeometry x="150" y="250" width="60" height="30" as="geometry" />
        </mxCell>
        <mxCell id="VK_fdcJX0h6HLVaaX9Vf-24" value="Projection" style="text;html=1;strokeColor=none;fillColor=none;align=center;verticalAlign=middle;whiteSpace=wrap;rounded=0;" vertex="1" parent="1">
          <mxGeometry x="320" y="250" width="60" height="30" as="geometry" />
        </mxCell>
        <mxCell id="VK_fdcJX0h6HLVaaX9Vf-25" value="Output" style="text;html=1;strokeColor=none;fillColor=none;align=center;verticalAlign=middle;whiteSpace=wrap;rounded=0;" vertex="1" parent="1">
          <mxGeometry x="435" y="250" width="60" height="30" as="geometry" />
        </mxCell>
      </root>
    </mxGraphModel>
  </diagram>
</mxfile>
